# xmcd
#
# Track frame offsets: 
#        150
#        19755
#        36937
#        52887
#        66560
#        81510
#        92147
#        106985
#        118760
#        133082
#        166752
#        182485
#        205930
#        220095
#
# Disc length: 3156 seconds
#
# Revision: 4
# Processed by: cddbd v1.5.2PL0 Copyright (c) Steve Scherf et al.
# Submitted via: ExactAudioCopyFreeDBPlugin 1.0
#
DISCID=c50c520e
DTITLE=The Chicago Blues Band Boys - Blues Brothers (Cover)
DYEAR=1998
DGENRE=Blues
TTITLE0=She Caught The Katy
TTITLE1=Peter Gunn Theme
TTITLE2=Gimme Some Lovin'
TTITLE3=Shake A Tail Feather
TTITLE4=Everybody Needs Somebody To Love
TTITLE5=The Old Landmark
TTITLE6=Think
TTITLE7=Theme From 'Rawhide'
TTITLE8=Minnie The Moocher
TTITLE9=Sweet Home Chicago
TTITLE10=Jailhouse Rock
TTITLE11=Shotgun Blues
TTITLE12=Soul Man
TTITLE13=Hey Bartender
EXTD=
EXTT0=
EXTT1=
EXTT2=
EXTT3=
EXTT4=
EXTT5=
EXTT6=
EXTT7=
EXTT8=
EXTT9=
EXTT10=
EXTT11=
EXTT12=
EXTT13=
PLAYORDER=
